<svg xmlns="http://www.w3.org/2000/svg" viewBox="0 0 1200 630" role="img" aria-label="Atellica Promptathon social preview">
  <defs>
    <linearGradient id="bg" x1="0" y1="0" x2="1" y2="1">
      <stop offset="0%" stop-color="#f7fbff" />
      <stop offset="100%" stop-color="#e9f0f9" />
    </linearGradient>
    <linearGradient id="ink" x1="0" y1="0" x2="1" y2="1">
      <stop offset="0%" stop-color="#153768" />
      <stop offset="100%" stop-color="#0d2045" />
    </linearGradient>
  </defs>
  <rect width="1200" height="630" fill="url(#bg)" />
  <g stroke="#c6d3e1" stroke-width="1" opacity="0.55">
    <path d="M60 90H1140M60 150H1140M60 210H1140M60 270H1140M60 330H1140M60 390H1140M60 450H1140M60 510H1140" />
    <path d="M120 60V570M220 60V570M320 60V570M420 60V570M520 60V570M620 60V570M720 60V570M820 60V570M920 60V570M1020 60V570" />
  </g>
  <rect x="90" y="110" width="1020" height="410" rx="20" fill="#ffffff" stroke="#c3cfdd" />
  <circle cx="140" cy="160" r="10" fill="#ff7d31" />
  <text x="175" y="168" font-family="'Plus Jakarta Sans', Arial, sans-serif" font-size="34" fill="url(#ink)" font-weight="700">ATELLICA DIGITAL EXPERIENCE</text>
  <text x="140" y="270" font-family="'Plus Jakarta Sans', Arial, sans-serif" font-size="72" fill="#0d2045" font-weight="800">AI Promptathon 2026 Strategy</text>
  <text x="140" y="350" font-family="'Plus Jakarta Sans', Arial, sans-serif" font-size="42" fill="#1f3357" font-weight="600">Strategic Mission Briefing and Playbook</text>
  <rect x="140" y="395" width="660" height="78" rx="10" fill="#f8fbff" stroke="#d7e3f0" />
  <rect x="152" y="408" width="7" height="52" fill="#f36a57" />
  <text x="176" y="445" font-family="'Plus Jakarta Sans', Arial, sans-serif" font-size="32" fill="#1c355c" font-weight="500">Beginner Track Use Case</text>
  <text x="140" y="545" font-family="'Space Grotesk', Arial, sans-serif" font-size="28" fill="#25538f" font-weight="700">Siemens Healthineers | Atellica Solution Center</text>
</svg>
